<svg width="18" height="18" viewBox="0 0 18 18" fill="none" xmlns="http://www.w3.org/2000/svg">
<path fill-rule="evenodd" clip-rule="evenodd" d="M4.03387 14.9827H14.3245C14.5194 14.9827 14.7064 15.0602 14.8442 15.198C14.9821 15.3359 15.0595 15.5228 15.0595 15.7178C15.0595 15.9127 14.9821 16.0997 14.8442 16.2375C14.7064 16.3754 14.5194 16.4528 14.3245 16.4528H4.03387C3.83893 16.4528 3.65196 16.3754 3.51412 16.2375C3.37627 16.0997 3.29883 15.9127 3.29883 15.7178C3.29883 15.5228 3.37627 15.3359 3.51412 15.198C3.65196 15.0602 3.83893 14.9827 4.03387 14.9827ZM3.29883 11.3075L10.6493 3.95708L12.8544 6.16221L5.50396 13.5126H3.29883V11.3075ZM11.3843 3.22204L12.8544 1.75195L15.0595 3.95708L13.5887 5.4279L11.3843 3.22204Z" fill="#00629D"/>
</svg>
