<svg width="430" height="932" viewBox="0 0 430 932" fill="none" xmlns="http://www.w3.org/2000/svg">
<g clip-path="url(#clip0_322_876)">
<rect width="430" height="932" rx="10" fill="#F4F4F4"/>
<circle cx="215.5" cy="410.5" r="566.5" fill="#00629D"/>
<path d="M168.303 443.77C168.303 443.77 168.303 455.829 181.082 465.051C181.082 465.051 189.606 472.852 213.743 478.529L232.912 483.493C232.912 483.493 233.626 506.185 202.385 494.133C202.385 494.133 178.24 485.618 170.43 465.051C170.43 465.051 166.176 504.773 214.458 518.244C214.458 518.244 242.857 513.281 254.215 484.944C254.215 484.944 259.899 475.009 243.564 468.626C243.564 468.626 227.237 463.663 214.458 461.538C214.458 461.538 185.344 455.861 184.638 440.971C184.638 440.971 213.743 433.835 235.753 439.552C235.753 439.552 244.984 440.971 239.659 461.181C239.659 461.181 253.509 463.663 257.057 472.884L259.899 428.198C259.899 428.198 215.879 406.925 168.303 428.198V443.77Z" fill="white"/>
<path d="M214.68 437.321C221.484 437.588 228.269 438.213 235.007 439.192C246 440.849 257.406 443.95 257.747 449.539L256.263 472.493C256.263 472.493 254.112 463.985 238.515 461.147C238.515 461.147 251.905 433.349 214.68 437.321Z" fill="url(#paint0_linear_322_876)"/>
<path d="M227.864 482.425C227.864 482.425 255.549 485.255 244.596 499.654C236.514 509.251 225.312 515.705 212.95 517.89C212.95 517.89 169.978 509.018 169.287 462.183C169.287 462.183 172.129 487.792 213.307 497.331C213.307 497.331 226.602 499.575 229.896 491.519C229.896 491.519 235.523 481.711 227.864 482.425Z" fill="url(#paint1_linear_322_876)"/>
<path d="M154.52 411.87C154.52 411.87 213.883 371.663 275.253 411.87L275.761 461.615C275.761 461.615 280.794 512.874 215.391 538C215.391 538 153.012 519.915 154.012 461.615L154.52 411.87Z" stroke="white" stroke-width="2" stroke-miterlimit="10"/>
</g>
<defs>
<linearGradient id="paint0_linear_322_876" x1="235.952" y1="456.429" x2="236.648" y2="421.575" gradientUnits="userSpaceOnUse">
<stop stop-color="white"/>
<stop offset="0.56" stop-color="#B5B5B5"/>
<stop offset="0.98" stop-color="#B3B3B3"/>
</linearGradient>
<linearGradient id="paint1_linear_322_876" x1="169.287" y1="490.044" x2="247.159" y2="490.044" gradientUnits="userSpaceOnUse">
<stop stop-color="white"/>
<stop offset="1" stop-color="#CCCCCC"/>
</linearGradient>
<clipPath id="clip0_322_876">
<rect width="430" height="932" rx="10" fill="white"/>
</clipPath>
</defs>
</svg>
