<svg width="258" height="187" viewBox="0 0 258 187" fill="none" xmlns="http://www.w3.org/2000/svg">
<g clip-path="url(#clip0_2220_916)">
<path d="M154.987 59.407H148.633C148.429 59.4077 148.232 59.3322 148.081 59.1952C147.93 59.0582 147.836 58.8697 147.817 58.6667L146.545 45.6299H157.075L155.804 58.6666C155.784 58.8696 155.69 59.0581 155.539 59.1951C155.388 59.3321 155.191 59.4077 154.987 59.407Z" fill="#D2E4FF"/>
<path d="M157.06 47.2694H146.563C146.346 47.2692 146.137 47.1827 145.984 47.029C145.83 46.8752 145.743 46.6668 145.743 46.4494V44.4812C145.743 44.2638 145.83 44.0553 145.984 43.9016C146.137 43.7479 146.346 43.6614 146.563 43.6611H157.06C157.278 43.6614 157.486 43.7479 157.64 43.9016C157.793 44.0553 157.88 44.2638 157.88 44.4812V46.4494C157.88 46.6668 157.793 46.8752 157.64 47.0289C157.486 47.1827 157.278 47.2692 157.06 47.2694Z" fill="#8D9199"/>
<path d="M80.6438 45.4013H55.4707V37.7594C63.4253 32.2237 70.4732 32.7049 79.7447 38.209L80.6438 45.4013Z" fill="#6C63FF"/>
<path d="M49.6417 181.137L44.1306 181.137L43.3066 159.88L49.6426 159.88L49.6417 181.137Z" fill="#FFB8B8"/>
<path d="M51.0461 186.479L33.2764 186.478V186.253C33.2764 185.345 33.4552 184.446 33.8028 183.606C34.1504 182.767 34.6599 182.005 35.3021 181.363C35.9444 180.72 36.7069 180.211 37.546 179.863C38.3852 179.516 39.2846 179.337 40.1929 179.337L51.0464 179.337L51.0461 186.479Z" fill="#2F2E41"/>
<path d="M80.6825 181.137L86.1936 181.137L87.0176 159.88L80.6816 159.88L80.6825 181.137Z" fill="#FFB8B8"/>
<path d="M79.2773 179.337L90.1304 179.337C91.0387 179.337 91.9386 179.516 92.7777 179.863C93.6169 180.211 94.3794 180.72 95.0216 181.363C95.6639 182.005 96.1734 182.767 96.5209 183.606C96.8685 184.446 97.0474 185.345 97.0474 186.253V186.478L79.2777 186.479L79.2773 179.337Z" fill="#2F2E41"/>
<path d="M80.8277 178.413C80.3679 178.411 79.9221 178.254 79.5634 177.966C79.2046 177.678 78.954 177.278 78.8525 176.829L65.1932 117.25C65.1632 117.099 65.0807 116.963 64.9603 116.866C64.8399 116.77 64.6893 116.719 64.535 116.723H64.5316C64.3767 116.72 64.2258 116.772 64.1057 116.87C63.9855 116.967 63.9039 117.105 63.8752 117.257L51.3316 176.434C51.2338 176.887 50.9843 177.292 50.6244 177.584C50.2645 177.876 49.8158 178.035 49.3527 178.037H43.3773C43.1016 178.037 42.8289 177.981 42.5757 177.872C42.3226 177.762 42.0945 177.602 41.9054 177.402C41.7163 177.201 41.5702 176.964 41.476 176.705C41.3819 176.446 41.3418 176.17 41.358 175.895L45.8087 100.89L47.5996 100.36L47.6332 100.361L82.8117 100.669L90.304 175.591C90.3302 175.858 90.3029 176.128 90.2237 176.384C90.1445 176.641 90.015 176.879 89.8427 177.085C89.6705 177.291 89.4589 177.461 89.2204 177.584C88.9819 177.707 88.7212 177.782 88.4536 177.803L80.9898 178.406C80.9355 178.41 80.8814 178.413 80.8277 178.413Z" fill="#2F2E41"/>
<path d="M66.2994 31.7053C72.397 31.7053 77.3401 26.7623 77.3401 20.6647C77.3401 14.5671 72.397 9.62402 66.2994 9.62402C60.2018 9.62402 55.2588 14.5671 55.2588 20.6647C55.2588 26.7623 60.2018 31.7053 66.2994 31.7053Z" fill="#FFB8B8"/>
<path d="M59.5367 109.113C57.5998 109.137 55.6705 108.866 53.8154 108.308C52.1655 107.811 50.6348 106.981 49.3177 105.869C48.0005 104.758 46.9247 103.389 46.1565 101.846C45.913 101.382 45.8591 100.842 46.0059 100.338C47.2235 96.1826 53.1077 74.5807 49.3534 57.4081C48.8234 55.0225 48.7794 52.5546 49.2239 50.1516C49.6683 47.7487 50.5922 45.4598 51.9404 43.4216C53.2572 41.3994 54.9678 39.6631 56.9702 38.3163C58.9725 36.9696 61.2256 36.0399 63.5951 35.5827L63.5952 35.5822C64.2179 35.4606 64.844 35.361 65.4558 35.2855C68.075 34.9631 70.7331 35.2236 73.2399 36.0484C75.7467 36.8731 78.0402 38.2418 79.9563 40.0564C81.9293 41.9066 83.4689 44.1701 84.4648 46.6849C85.4608 49.1997 85.8885 51.9036 85.7172 54.603L82.8318 100.905C82.8119 101.252 82.702 101.588 82.513 101.88C82.3241 102.172 82.0624 102.41 81.7538 102.57C78.4308 104.311 68.4483 109.113 59.5367 109.113Z" fill="#3F3D56"/>
<path d="M78.773 12.5381C77.6261 9.65578 75.5253 7.25405 72.8213 5.73374C70.1174 4.21344 66.9737 3.66654 63.9152 4.18434L67.3962 6.99734C63.0712 7.14299 58.5184 6.83331 55.4303 9.86498C56.4135 9.83771 57.702 11.9405 58.6851 11.9133C56.8471 11.9496 55.1804 13.2411 54.3685 14.8905C53.6166 16.5851 53.4407 18.4794 53.8677 20.2835C54.2307 22.0857 57 26.3078 57.7454 27.9883C57.6172 23.5964 66.2635 13.1207 70.4856 14.2139C68.3405 15.0098 66.4791 16.4231 65.1361 18.2755C68.0085 16.8259 71.257 16.2944 74.4416 16.7529C75.1687 16.9197 75.9188 16.9617 76.66 16.8771C77.1142 16.7873 77.5379 16.5824 77.8904 16.2822C78.2429 15.982 78.5126 15.5964 78.6737 15.1622C78.8347 14.7281 78.8818 14.2599 78.8104 13.8024C78.7389 13.3449 78.5514 12.9133 78.2657 12.5489L78.773 12.5381Z" fill="#2F2E41"/>
<path d="M58.7762 106.333C58.4973 106.332 58.2216 106.274 57.9662 106.162L37.0184 97.0186C36.5734 96.8278 36.2123 96.4828 36.0014 96.047C35.7905 95.6112 35.7441 95.1139 35.8706 94.6466L49.7382 42.26C49.9961 41.2852 50.4457 40.3717 51.0609 39.5728C51.6761 38.774 52.4445 38.1059 53.321 37.6076C54.1976 37.1093 55.1648 36.7909 56.1659 36.671C57.167 36.5511 58.182 36.6321 59.1515 36.9092L64.6965 38.4918L60.7929 104.428C60.7729 104.753 60.6747 105.069 60.5068 105.348C60.3389 105.627 60.1061 105.862 59.8283 106.032C59.5122 106.228 59.148 106.332 58.7762 106.333Z" fill="#00629D"/>
<path d="M97.5459 94.6465L96.6242 91.1717L95.2893 86.1191L94.6464 83.6962L93.3114 78.6571L83.6782 42.2595C83.4212 41.2843 82.972 40.3703 82.357 39.571C81.742 38.7718 80.9736 38.1034 80.0968 37.6052C79.22 37.1069 78.2525 36.7887 77.2511 36.6694C76.2498 36.5501 75.2346 36.632 74.2653 36.9102L68.7227 38.4926L71.4692 84.8694L71.7525 89.7108L71.9323 92.763V92.7675L72.2198 97.5819L72.6246 104.428C72.6576 104.942 72.8842 105.424 73.2586 105.778C73.6331 106.132 74.1277 106.33 74.6428 106.334C74.9213 106.332 75.1966 106.274 75.4521 106.163L96.3995 97.02C96.8447 96.8292 97.2061 96.4839 97.4167 96.0477C97.6274 95.6115 97.6733 95.1138 97.5459 94.6465Z" fill="#00629D"/>
<path d="M94.646 83.6963L71.7524 89.7109L71.4688 84.8696L93.3113 78.6572L94.646 83.6963Z" fill="#CCCCCC"/>
<path d="M96.6252 91.1708L72.2208 97.5809L71.9336 92.7666V92.7621L95.2906 86.1182L96.6252 91.1708Z" fill="#CCCCCC"/>
<path d="M61.6654 85.912L61.3817 90.6635L38.9287 83.9746L40.2453 79.0029L61.6654 85.912Z" fill="#CCCCCC"/>
<path d="M61.1969 93.7921L38.2849 86.3975L36.9678 91.3826L60.9182 98.5165L61.1969 93.7921Z" fill="#CCCCCC"/>
<path d="M38.685 98.7611C39.368 98.5828 40.0037 98.2569 40.5473 97.8063C41.0908 97.3558 41.5289 96.7916 41.8308 96.1534C42.1326 95.5152 42.2909 94.8186 42.2944 94.1126C42.298 93.4067 42.1467 92.7085 41.8512 92.0673L52.6225 58.252L44.9846 56.6523L35.1091 89.8058C34.0649 90.3736 33.2653 91.3047 32.8617 92.4227C32.4581 93.5407 32.4786 94.7678 32.9194 95.8717C33.3602 96.9755 34.1906 97.8794 35.2532 98.4119C36.3158 98.9444 37.5369 99.0687 38.685 98.7611Z" fill="#FFB8B8"/>
<path d="M52.9218 41.6287C55.115 41.8524 56.3487 44.3184 55.8034 47.3889L53.1866 62.1234C52.9905 63.2279 52.0815 64.1025 51.326 63.9136L42.4747 61.7011C41.7936 61.5308 41.5428 60.5632 41.9287 59.5949L47.2424 46.2651C48.3963 43.3703 50.7954 41.4118 52.9218 41.6287Z" fill="#3F3D56"/>
<path d="M66.2586 2.5358e-10C69.9953 0.000400785 73.5851 1.45513 76.2679 4.05615C78.9507 6.65716 80.5158 10.2002 80.6318 13.9351H83.3404C83.5788 13.9351 83.8075 14.0298 83.9761 14.1984C84.1447 14.367 84.2394 14.5957 84.2394 14.8341V18.4303C84.2394 18.6687 84.1447 18.8974 83.9761 19.066C83.8075 19.2346 83.5788 19.3293 83.3404 19.3293H52.7731C52.5346 19.3293 52.306 19.2346 52.1374 19.066C51.9688 18.8974 51.874 18.6687 51.874 18.4303V14.3846C51.874 12.4956 52.2461 10.6251 52.969 8.87983C53.6919 7.13461 54.7514 5.54886 56.0872 4.21312C57.4229 2.87739 59.0087 1.81782 60.7539 1.09493C62.4991 0.372046 64.3696 -1.12159e-05 66.2586 2.5358e-10Z" fill="#00629D"/>
<path d="M67.9785 88.9178H61.6243C61.4204 88.9184 61.2236 88.8429 61.0726 88.7059C60.9216 88.5689 60.8272 88.3805 60.8081 88.1775L59.5361 75.1406H70.0667L68.7948 88.1773C68.7756 88.3803 68.6813 88.5688 68.5302 88.7058C68.3792 88.8429 68.1824 88.9184 67.9785 88.9178Z" fill="#D2E4FF"/>
<path d="M70.0494 76.7802H59.5525C59.3351 76.7799 59.1266 76.6934 58.9729 76.5397C58.8192 76.386 58.7327 76.1775 58.7324 75.9601V73.9919C58.7327 73.7745 58.8192 73.5661 58.9729 73.4123C59.1266 73.2586 59.3351 73.1721 59.5525 73.1719H70.0494C70.2668 73.1721 70.4752 73.2586 70.629 73.4123C70.7827 73.5661 70.8692 73.7745 70.8694 73.9919V75.9601C70.8692 76.1775 70.7827 76.386 70.629 76.5397C70.4752 76.6934 70.2668 76.7799 70.0494 76.7802Z" fill="#8D9199"/>
<path d="M64.9366 81.9262C65.1837 81.9547 65.4282 82.0027 65.6677 82.0697L82.5904 67.5573L81.6012 62.2326L89.442 59.6895L92.1092 68.9456C92.3247 69.6934 92.2918 70.4909 92.0155 71.2184C91.7391 71.9459 91.2343 72.5641 90.5767 72.9802L69.1447 86.5424C69.1599 87.5005 68.8831 88.4405 68.351 89.2374C67.8189 90.0343 67.0568 90.6503 66.166 91.0036C65.2753 91.3568 64.2981 91.4305 63.3645 91.2148C62.4309 90.9991 61.585 90.5042 60.9395 89.7961C60.294 89.088 59.8793 88.2001 59.7507 87.2505C59.6221 86.301 59.7856 85.3348 60.2195 84.4804C60.6535 83.6261 61.3372 82.9241 62.1798 82.4678C63.0224 82.0116 63.984 81.8226 64.9366 81.9262Z" fill="#FFB8B8"/>
<path d="M82.635 42.8452C84.9778 42.1894 87.3186 43.9726 88.103 47.0104L91.867 61.5884C92.1492 62.6812 91.6012 63.8425 90.7452 63.9656L80.7179 65.4079C79.9463 65.5189 79.2665 64.7276 79.2382 63.6856L78.8489 49.34C78.7644 46.2246 80.3637 43.4811 82.635 42.8452Z" fill="#3F3D56"/>
<path d="M217.416 135.965C212.8 129.824 209.15 123.013 206.594 115.768C206.446 115.334 206.457 114.862 206.624 114.436C206.791 114.01 207.104 113.657 207.507 113.439L223.306 104.974C223.561 104.836 223.845 104.758 224.135 104.747C224.426 104.735 224.715 104.789 224.981 104.906C225.251 105.024 225.492 105.202 225.684 105.427C225.875 105.651 226.013 105.917 226.087 106.203C227.926 113.184 231.382 119.635 236.177 125.033C236.374 125.253 236.519 125.515 236.6 125.799C236.68 126.083 236.696 126.382 236.643 126.673C236.593 126.959 236.479 127.23 236.308 127.465C236.138 127.7 235.916 127.893 235.659 128.029L219.861 136.494C219.457 136.71 218.989 136.775 218.542 136.678C218.094 136.581 217.695 136.329 217.416 135.965Z" fill="#CCCCCC"/>
<path d="M218.494 135.156C218.579 135.262 218.699 135.336 218.832 135.363C218.965 135.391 219.103 135.371 219.223 135.307L235.022 126.842C235.099 126.802 235.165 126.744 235.216 126.674C235.267 126.605 235.301 126.524 235.315 126.438C235.332 126.348 235.327 126.256 235.302 126.168C235.276 126.08 235.231 125.999 235.169 125.931C230.233 120.374 226.675 113.733 224.782 106.546C224.76 106.457 224.718 106.375 224.659 106.305C224.6 106.235 224.525 106.18 224.441 106.144C224.362 106.108 224.276 106.092 224.189 106.095C224.103 106.099 224.018 106.122 223.942 106.164L208.144 114.629C208.024 114.694 207.931 114.798 207.88 114.925C207.829 115.051 207.824 115.191 207.866 115.32C210.376 122.436 213.96 129.125 218.494 135.156Z" fill="white"/>
<path d="M224.343 117.055L215.738 120.853C215.411 120.997 215.04 121.006 214.707 120.877C214.373 120.747 214.105 120.491 213.96 120.164L213.747 119.682C213.603 119.355 213.595 118.984 213.724 118.65C213.853 118.317 214.109 118.049 214.436 117.904L223.041 114.106C223.368 113.962 223.739 113.953 224.072 114.082C224.406 114.212 224.674 114.468 224.819 114.795L225.032 115.277C225.176 115.604 225.184 115.975 225.055 116.308C224.926 116.642 224.67 116.91 224.343 117.055Z" fill="#CCCCCC"/>
<path d="M227.489 122.899L218.885 126.697C218.558 126.841 218.187 126.849 217.853 126.72C217.52 126.591 217.251 126.335 217.107 126.008L216.894 125.526C216.75 125.199 216.741 124.828 216.871 124.494C217 124.161 217.256 123.892 217.583 123.748L226.187 119.949C226.515 119.805 226.886 119.797 227.219 119.926C227.552 120.055 227.821 120.312 227.966 120.638L228.178 121.121C228.322 121.448 228.331 121.819 228.202 122.152C228.072 122.486 227.816 122.754 227.489 122.899Z" fill="#CCCCCC"/>
<path d="M207.308 118.03C206.714 117.648 206.211 117.141 205.835 116.543C205.458 115.946 205.217 115.274 205.129 114.573C205.041 113.873 205.107 113.161 205.323 112.489C205.539 111.817 205.9 111.201 206.381 110.683L202.752 59.1875L213.205 60.2012L213.492 110.631C214.308 111.496 214.778 112.629 214.814 113.817C214.85 115.005 214.448 116.165 213.686 117.077C212.924 117.989 211.853 118.59 210.678 118.766C209.502 118.941 208.303 118.679 207.308 118.03Z" fill="#A0616A"/>
<path d="M205.12 76.4904C204.875 76.3143 204.673 76.0856 204.528 75.821C204.384 75.5565 204.3 75.2628 204.284 74.9617L203.518 61.0823C203.442 59.7072 203.878 58.3528 204.742 57.2801C205.606 56.2075 206.836 55.4926 208.196 55.2733C209.555 55.054 210.948 55.3458 212.105 56.0925C213.262 56.8393 214.102 57.988 214.462 59.3171L217.827 71.7261C217.967 72.2438 217.895 72.7959 217.629 73.2612C217.362 73.7264 216.921 74.0668 216.404 74.2078L206.833 76.8026C206.543 76.8821 206.238 76.8953 205.941 76.8412C205.644 76.7872 205.364 76.6673 205.12 76.4904Z" fill="#3F3D56"/>
<path d="M187.304 181.34H181.793L179.171 160.083H187.304L187.304 181.34Z" fill="#A0616A"/>
<path d="M177.856 179.765H188.484V186.457H171.164C171.164 185.578 171.337 184.708 171.673 183.896C172.01 183.084 172.503 182.346 173.124 181.725C173.746 181.103 174.483 180.61 175.295 180.274C176.107 179.938 176.977 179.765 177.856 179.765Z" fill="#2F2E41"/>
<path d="M207.981 181.34H202.47L199.849 160.083H207.982L207.981 181.34Z" fill="#A0616A"/>
<path d="M198.533 179.765H209.161V186.457H191.841C191.841 185.578 192.014 184.708 192.35 183.896C192.687 183.084 193.179 182.346 193.801 181.725C194.422 181.103 195.16 180.61 195.972 180.274C196.784 179.938 197.654 179.765 198.533 179.765Z" fill="#2F2E41"/>
<path d="M187.043 170.632L180.977 170.342C180.46 170.318 179.972 170.096 179.614 169.723C179.255 169.35 179.054 168.853 179.05 168.336C177.451 143.649 175.235 117.178 178.627 106.951C178.625 106.66 178.686 106.371 178.805 106.106C178.925 105.84 179.101 105.604 179.32 105.412C179.54 105.221 179.799 105.079 180.078 104.997C180.358 104.914 180.652 104.893 180.94 104.935L205.211 108.458C205.691 108.525 206.13 108.763 206.448 109.128C206.766 109.493 206.942 109.961 206.943 110.445C210.042 122.554 210.182 144.511 210.065 167.325C210.067 167.592 210.016 167.856 209.915 168.103C209.815 168.351 209.666 168.575 209.478 168.765C209.29 168.954 209.066 169.105 208.82 169.207C208.573 169.31 208.309 169.363 208.042 169.363H201.502C201.019 169.365 200.552 169.193 200.185 168.88C199.818 168.566 199.576 168.131 199.503 167.654L195.468 142.001C195.409 141.626 195.216 141.285 194.925 141.041C194.634 140.796 194.265 140.666 193.885 140.673C193.505 140.68 193.14 140.824 192.859 141.079C192.577 141.333 192.397 141.682 192.352 142.059L189.148 168.851C189.088 169.342 188.851 169.794 188.481 170.122C188.111 170.451 187.634 170.633 187.139 170.634C187.108 170.634 187.076 170.633 187.043 170.632Z" fill="#2F2E41"/>
<path d="M191.315 110.447C185.966 107.475 181.786 106.694 179.771 106.493C179.503 106.467 179.244 106.387 179.008 106.258C178.772 106.129 178.564 105.953 178.399 105.741C178.229 105.528 178.104 105.283 178.032 105.02C177.96 104.757 177.943 104.482 177.98 104.212L183.796 61.0356C184.13 58.5096 185.106 56.1114 186.63 54.069C188.153 52.0266 190.174 50.4081 192.5 49.3674C194.751 48.3325 197.23 47.8908 199.7 48.0845C202.171 48.2781 204.55 49.1006 206.613 50.4737C206.812 50.6062 207.008 50.7416 207.199 50.8797C209.575 52.6201 211.382 55.0247 212.393 57.7904C213.403 60.5561 213.573 63.5592 212.88 66.4211C209.313 81.0102 208.089 104.928 207.879 109.574C207.863 109.971 207.729 110.353 207.496 110.673C207.262 110.994 206.939 111.238 206.567 111.375C204.373 112.172 202.058 112.584 199.723 112.593C196.783 112.611 193.887 111.872 191.315 110.447Z" fill="#3F3D56"/>
<path d="M196.179 43.5051C202.277 43.5051 207.22 38.5621 207.22 32.4645C207.22 26.3669 202.277 21.4238 196.179 21.4238C190.082 21.4238 185.139 26.3669 185.139 32.4645C185.139 38.5621 190.082 43.5051 196.179 43.5051Z" fill="#A0616A"/>
<path d="M203.991 41.1985C201.931 43.3925 198.106 42.2148 197.838 39.2174C197.817 38.9847 197.818 38.7505 197.842 38.5181C197.981 37.1904 198.748 35.9851 198.564 34.5832C198.523 34.2343 198.393 33.9018 198.187 33.6172C196.545 31.4194 192.693 34.6003 191.144 32.6106C190.194 31.3906 191.31 29.4698 190.581 28.1062C189.619 26.3065 186.77 27.1943 184.983 26.2087C182.995 25.1121 183.114 22.0618 184.423 20.2064C186.019 17.9437 188.817 16.7364 191.58 16.5624C194.344 16.3883 197.088 17.1354 199.668 18.1408C202.6 19.2832 205.507 20.862 207.31 23.4395C209.504 26.5741 209.715 30.7882 208.618 34.4535C207.951 36.6832 205.673 39.4069 203.991 41.1985Z" fill="#2F2E41"/>
<path d="M212.735 51.9328C212.542 51.0248 210.883 49.7841 208.51 48.7727C204.695 47.2275 200.568 46.6053 196.467 46.9568C192.366 47.3083 188.406 48.6236 184.91 50.7955C184.666 50.8086 184.433 50.9015 184.247 51.0599C184.061 51.2183 183.932 51.4334 183.88 51.6721L175.897 86.9818L174.858 91.5804L174.171 94.6236L173.132 99.2087L172.579 101.659C172.544 101.815 172.543 101.978 172.575 102.135C172.607 102.292 172.673 102.441 172.768 102.57C172.862 102.7 172.983 102.808 173.123 102.888C173.263 102.967 173.418 103.015 173.577 103.03L208.051 106.005C208.082 106.005 208.118 106.01 208.15 106.01C208.434 106.008 208.707 105.899 208.914 105.704C209.121 105.508 209.246 105.242 209.265 104.958L209.593 99.9639L209.944 94.6236L210.096 92.3086L210.442 86.9818L212.739 51.9912V51.9598L212.735 51.9328Z" fill="#00629D"/>
<path d="M156.169 54.1548C156.224 54.3974 156.26 54.6439 156.276 54.8921L175.587 66.0321L180.28 63.3301L185.284 69.8806L175.243 77.0372L153.213 59.6576C152.314 59.99 151.336 60.0411 150.408 59.804C149.479 59.5668 148.645 59.0527 148.016 58.33C147.387 57.6073 146.993 56.7102 146.887 55.7581C146.78 54.806 146.966 53.844 147.419 53C147.872 52.156 148.572 51.4701 149.425 51.0334C150.278 50.5966 151.243 50.4299 152.193 50.5552C153.143 50.6806 154.032 51.0921 154.742 51.7351C155.452 52.3781 155.95 53.2221 156.169 54.1548Z" fill="#A0616A"/>
<path d="M176.277 65.0857C176.245 64.7859 176.28 64.4827 176.381 64.1985C176.482 63.9142 176.645 63.6562 176.858 63.4434L186.686 53.6131C187.66 52.6392 188.96 52.0604 190.335 51.9881C191.711 51.9159 193.064 52.3554 194.134 53.2219C195.205 54.0884 195.917 55.3205 196.132 56.6807C196.348 58.0408 196.053 59.4327 195.303 60.588L188.304 71.3729C188.011 71.8225 187.553 72.1376 187.028 72.2493C186.503 72.361 185.956 72.26 185.506 71.9686L177.188 66.5705C176.935 66.4069 176.721 66.1885 176.564 65.9316C176.406 65.6746 176.308 65.3855 176.277 65.0857Z" fill="#3F3D56"/>
<path d="M210.441 86.9824L210.095 92.3092L174.857 91.581L175.896 86.9824H210.441Z" fill="#CCCCCC"/>
<path d="M209.943 94.624L209.592 99.9643L173.132 99.2091L174.171 94.624H209.943Z" fill="#CCCCCC"/>
<path d="M196.395 11.0137C192.658 11.0141 189.068 12.4688 186.386 15.0698C183.703 17.6708 182.138 21.2139 182.022 24.9488H179.313C179.075 24.9488 178.846 25.0435 178.677 25.2121C178.509 25.3807 178.414 25.6094 178.414 25.8478V29.444C178.414 29.6824 178.509 29.9111 178.677 30.0797C178.846 30.2483 179.075 30.343 179.313 30.343H209.88C210.119 30.343 210.348 30.2483 210.516 30.0797C210.685 29.9111 210.779 29.6824 210.779 29.444V25.3983C210.779 23.5092 210.407 21.6387 209.685 19.8935C208.962 18.1483 207.902 16.5625 206.566 15.2268C205.231 13.8911 203.645 12.8315 201.9 12.1086C200.154 11.3857 198.284 11.0137 196.395 11.0137Z" fill="#00629D"/>
<path d="M252.214 187.449H-4.63925C-4.73493 187.449 -4.82668 187.401 -4.89433 187.317C-4.96199 187.233 -5 187.119 -5 186.999C-5 186.88 -4.96199 186.766 -4.89433 186.681C-4.82668 186.597 -4.73493 186.55 -4.63925 186.55H252.214C252.309 186.55 252.401 186.597 252.469 186.681C252.536 186.766 252.575 186.88 252.575 186.999C252.575 187.119 252.536 187.233 252.469 187.317C252.401 187.401 252.309 187.449 252.214 187.449Z" fill="#CCCCCC"/>
</g>
<defs>
<clipPath id="clip0_2220_916">
<rect width="257.575" height="187" fill="white"/>
</clipPath>
</defs>
</svg>
